<svg width="48" height="48" viewBox="0 0 48 48" fill="none" xmlns="http://www.w3.org/2000/svg">
<circle cx="8.98502" cy="8.98502" r="1.155" fill="#B7B2B2"/>
<circle cx="18.995" cy="8.98502" r="1.155" fill="#B7B2B2"/>
<circle cx="29.005" cy="8.98502" r="1.155" fill="#B7B2B2"/>
<circle cx="39.015" cy="8.98502" r="1.155" fill="#B7B2B2"/>
<circle cx="8.98502" cy="18.995" r="1.155" fill="#B7B2B2"/>
<circle cx="18.995" cy="18.995" r="1.155" fill="#B7B2B2"/>
<circle cx="29.005" cy="18.995" r="1.155" fill="#B7B2B2"/>
<circle cx="39.015" cy="18.995" r="1.155" fill="#B7B2B2"/>
<circle cx="8.98502" cy="29.005" r="1.155" fill="#B7B2B2"/>
<circle cx="18.995" cy="29.005" r="1.155" fill="#B7B2B2"/>
<circle cx="29.005" cy="29.005" r="1.155" fill="#B7B2B2"/>
<circle cx="39.015" cy="29.005" r="1.155" fill="#B7B2B2"/>
<circle cx="8.98502" cy="39.015" r="1.155" fill="#B7B2B2"/>
<circle cx="18.995" cy="39.015" r="1.155" fill="#B7B2B2"/>
<circle cx="29.005" cy="39.015" r="1.155" fill="#B7B2B2"/>
<circle cx="39.015" cy="39.015" r="1.155" fill="#B7B2B2"/>
<path d="M23.9648 32.1288C22.1725 32.1288 20.7044 31.7189 19.5604 30.899C18.4355 30.0601 17.8063 28.9256 17.6728 27.4956H19.732C19.8273 28.3727 20.2373 29.0877 20.9618 29.6406C21.7054 30.1745 22.6969 30.4414 23.9362 30.4414C25.023 30.4414 25.8715 30.184 26.4816 29.6692C27.1108 29.1544 27.4254 28.5157 27.4254 27.753C27.4254 27.2192 27.2538 26.7806 26.9106 26.4374C26.5674 26.0942 26.1289 25.8273 25.595 25.6366C25.0802 25.4269 24.3747 25.2076 23.4786 24.9788C22.3155 24.6738 21.3717 24.3687 20.6472 24.0636C19.9227 23.7586 19.303 23.3105 18.7882 22.7194C18.2925 22.1093 18.0446 21.299 18.0446 20.2884C18.0446 19.5258 18.2734 18.8203 18.731 18.172C19.1886 17.5238 19.8369 17.009 20.6758 16.6276C21.5147 16.2463 22.4681 16.0556 23.5358 16.0556C25.2137 16.0556 26.5674 16.4846 27.597 17.3426C28.6266 18.1816 29.1795 19.3446 29.2558 20.8318H27.2538C27.1966 19.9166 26.8343 19.1826 26.167 18.6296C25.5187 18.0576 24.6226 17.7716 23.4786 17.7716C22.4681 17.7716 21.6482 18.01 21.019 18.4866C20.3898 18.9633 20.0752 19.5544 20.0752 20.2598C20.0752 20.87 20.2563 21.3752 20.6186 21.7756C20.9999 22.157 21.4671 22.462 22.02 22.6908C22.5729 22.9006 23.3165 23.1389 24.2508 23.4058C25.3757 23.7109 26.2719 24.0064 26.9392 24.2924C27.6065 24.5784 28.1785 24.9979 28.6552 25.5508C29.1319 26.1038 29.3797 26.8378 29.3988 27.753C29.3988 28.592 29.17 29.3451 28.7124 30.0124C28.2548 30.6607 27.6161 31.1755 26.7962 31.5568C25.9763 31.9382 25.0325 32.1288 23.9648 32.1288Z" fill="black"/>
</svg>
